# xmcd CD database file
#
# Track frame offsets:
#	150
#	35963
#	59763
#	78526
#	94275
#	112290
#	127609
#	149122
#	171135
#	178689
#	196068
#	219638
#
# Disc length: 3064 seconds
#
# Revision: 0
# Processed by: cddbd v1.5.2PL0 Copyright (c) Steve Scherf et al.
# Submitted via: CDex 1.79
#
DISCID=bd0bf60c
DTITLE=John Etheridge - Stitched Up
DYEAR=2007
DGENRE=Jazz
TTITLE0=Turnaround
TTITLE1=Will You Still Love Me Tomorrow
TTITLE2=Stitched Up
TTITLE3=Sealed With A Kiss
TTITLE4=St. Mary's Loch
TTITLE5=Simbel
TTITLE6=Softly As In A Morning Sunrise
TTITLE7=Fire And Rain
TTITLE8=Tempura
TTITLE9=From Time To Time
TTITLE10=Distance Voice
TTITLE11=JC Blues
EXTD=YEAR: 2007
EXTT0=
EXTT1=
EXTT2=
EXTT3=
EXTT4=
EXTT5=
EXTT6=
EXTT7=
EXTT8=
EXTT9=
EXTT10=
EXTT11=
PLAYORDER=
